<?xml version="1.0" encoding="utf-8"?>
<!-- Generator: Adobe Illustrator 27.0.0, SVG Export Plug-In . SVG Version: 6.00 Build 0)  -->
<svg version="1.1" id="Layer_1" xmlns="http://www.w3.org/2000/svg" xmlns:xlink="http://www.w3.org/1999/xlink" x="0px" y="0px"
	 viewBox="0 0 31.3 31.4" style="enable-background:new 0 0 31.3 31.4;" xml:space="preserve">
<style type="text/css">
	.st0{fill:#7BAE7F;}
</style>
<path class="st0" d="M30.9,15.7c0,8.5-6.9,15.4-15.4,15.4c-8.4,0-15.4-6.9-15.4-15.3C0.2,7.2,7,0.3,15.6,0.3
	C24,0.3,30.9,7.3,30.9,15.7z M30,15.7c0-8-6.4-14.5-14.5-14.5C7.6,1.3,1.2,7.6,1.1,15.6C1,23.6,7.5,30.2,15.5,30.2
	C23.5,30.2,29.9,23.7,30,15.7L30,15.7z"/>
<path class="st0" d="M15.5,26.9c-6.2,0-11.2-5-11.2-11.2c0-6.2,5-11.2,11.2-11.2c6.2,0,11.2,5,11.2,11.3
	C26.7,21.9,21.7,26.9,15.5,26.9L15.5,26.9z M5.3,15.7C5.3,21.4,9.9,26,15.5,26c5.7,0,10.3-4.6,10.3-10.3c0-5.7-4.6-10.3-10.3-10.3
	S5.3,10,5.3,15.7L5.3,15.7z"/>
<path class="st0" d="M15.8,23.5c-0.5,0-0.7-0.2-0.8-0.5c0-0.3,0.2-0.5,0.7-0.5c3.2-0.1,6.1-2.7,6.5-5.9c0-0.3,0-0.5,0.1-0.8
	c0-0.4,0.2-0.6,0.5-0.5c0.3,0,0.4,0.2,0.4,0.6c0,3.5-2.6,6.7-6,7.4C16.8,23.4,16.3,23.4,15.8,23.5L15.8,23.5z"/>
</svg>
